<svg version="1.1" id="Capa_1" xmlns="http://www.w3.org/2000/svg" x="0" y="0" viewBox="0 0 512 512" xml:space="preserve"><path d="M421.184 384.96l-81.728-20.437-6.955-27.819c21.867-21.653 36.843-51.392 41.28-81.899 12.117-3.413 21.504-13.803 23.125-26.837l5.333-42.667c1.131-9.003-1.643-18.112-7.616-24.939a32.11 32.11 0 00-12.8-8.896l1.963-40.171 7.979-8c12.011-12.779 21.973-34.688 1.152-66.475-16-24.425-43.178-36.82-80.81-36.82-14.848 0-49.024 0-80.853 21.376C140.373 23.275 128 65.493 128 106.667c0 9.579 2.325 31.147 3.861 44.16a31.815 31.815 0 00-14.336 9.344 32.03 32.03 0 00-7.765 25.152l5.333 42.667c1.749 13.909 12.309 24.853 25.664 27.456 4.416 29.333 18.624 58.112 39.232 79.403l-7.424 29.717-81.728 20.437C37.333 398.336 0 446.165 0 501.333 0 507.221 4.779 512 10.667 512h490.667c5.888 0 10.667-4.821 10.667-10.709a119.728 119.728 0 00-90.817-116.331z"/></svg>