<svg height="512pt" viewBox="0 0 512 512" width="512pt" xmlns="http://www.w3.org/2000/svg"><path d="M492 0H131.367a19.999 19.999 0 00-14.144 5.86L5.855 117.226C2.273 120.809 0 125.937 0 131.37V492c0 11.047 8.953 20 20 20h360.633a20.078 20.078 0 0014.101-5.82c.012-.016.028-.024.043-.04l111.368-111.367a19.995 19.995 0 005.855-14.14V20.003C512 9.157 503.187 0 492 0zM372.348 111.367H248.602L319.969 40h123.746zm-214.348 40h84.633V236H158zM139.652 40h123.746l-71.367 71.367H68.285zm220.98 432H40V151.367h78V256c0 11.047 8.953 20 20 20h124.633c11.047 0 20-8.953 20-20V151.367h78zm40-28.285V139.652L472 68.285v304.063zm0 0"/></svg>