<svg id="Layer_1" height="512" viewBox="0 0 496 496" width="512" xmlns="http://www.w3.org/2000/svg"><path d="M333.381 211H48c-26.468 0-48 21.533-48 48v189c0 26.467 21.532 48 48 48h285.381c26.468 0 48-21.533 48-48V259c0-26.467-21.532-48-48-48zm16 237c0 8.822-7.178 16-16 16H48c-8.822 0-16-7.178-16-16V259c0-8.822 7.178-16 16-16h285.381c8.822 0 16 7.178 16 16zm-77.152-15.339a15.935 15.935 0 01-10.104 3.603c-14.941 0-21.801-18.871-10.124-28.398 34.236-27.932 33.982-80.236-.444-107.857-6.893-5.529-7.998-15.6-2.469-22.493 5.529-6.892 15.6-7.999 22.492-2.468 50.294 40.349 50.633 116.846.649 157.613zm-26.839-44.284a15.95 15.95 0 01-11.313 4.687c-14.125 0-21.424-17.203-11.313-27.313 6.464-6.464 6.464-16.982 0-23.447-6.249-6.249-6.248-16.379 0-22.627 6.249-6.247 16.38-6.248 22.627 0 18.939 18.941 18.939 49.76-.001 68.7zM496 52v392c0 28.673-23.327 52-52 52-8.837 0-16-7.164-16-16s7.163-16 16-16c11.028 0 20-8.972 20-20V52c0-11.028-8.972-20-20-20H230c-11.028 0-20 8.972-20 20v100c0 8.836-7.163 16-16 16s-16-7.164-16-16V52c0-28.673 23.327-52 52-52h214c28.673 0 52 23.327 52 52zM136.083 269.667H74.667c-8.837 0-16 7.164-16 16v61.417c0 8.836 7.163 16 16 16h61.416c8.837 0 16-7.164 16-16v-61.417c0-8.837-7.163-16-16-16zm-16 61.416H90.667v-29.417h29.416zM265 88c-8.837 0-16-7.164-16-16s7.163-16 16-16h144c8.837 0 16 7.164 16 16s-7.163 16-16 16zm161 189c-8.837 0-16-7.164-16-16V152c0-4.411-3.589-8-8-8H272c-4.411 0-8 3.589-8 8v24.5c0 8.836-7.163 16-16 16s-16-7.164-16-16V152c0-22.056 17.944-40 40-40h130c22.056 0 40 17.944 40 40v109c0 8.836-7.163 16-16 16z"/></svg>