<svg id="Capa_1" height="512" width="512" xmlns="http://www.w3.org/2000/svg"><path d="M500.494 304.716l-50.393-29.08c.655-6.524.985-13.091.985-19.636s-.33-13.111-.985-19.636l50.393-29.08c9.563-5.518 12.849-17.76 7.322-27.327l-60.03-103.923c-5.522-9.562-17.75-12.837-27.314-7.319L370.071 97.8a193.95 193.95 0 00-34.042-19.686V20c0-11.045-8.954-20-20-20H195.97c-11.046 0-20 8.955-20 20v58.115a193.987 193.987 0 00-34.042 19.686l-50.4-29.085c-9.564-5.519-21.791-2.243-27.314 7.319L4.183 179.958c-5.523 9.56-2.247 21.805 7.322 27.327l50.393 29.08c-.655 6.524-.985 13.091-.985 19.636s.33 13.111.985 19.636l-50.393 29.08c-9.563 5.518-12.849 17.761-7.322 27.327l57.51 99.56C54.672 450.418 50.825 470.767 50.825 492c0 11.046 8.954 20 20 20h370.351c11.046 0 20-8.954 20-20 0-21.233-3.848-41.582-10.869-60.397l57.51-99.56c5.523-9.56 2.246-21.806-7.323-27.327zM92.322 472c9.675-64.023 65.071-113.25 131.751-113.25h63.853c66.68 0 122.076 49.227 131.751 113.25zM193.25 256c0-34.601 28.149-62.75 62.75-62.75s62.75 28.149 62.75 62.75-28.15 62.75-62.75 62.75-62.75-28.149-62.75-62.75zm234.775 134.207c-23.092-31.694-56.656-55.286-95.567-65.644 16.337-18.2 26.291-42.239 26.291-68.563 0-56.657-46.093-102.75-102.749-102.75S153.251 199.343 153.251 256c0 26.323 9.954 50.363 26.291 68.563-38.91 10.358-72.475 33.95-95.567 65.644l-35.147-60.846 44.695-25.792a20.002 20.002 0 009.707-20.757c-1.537-8.816-2.316-17.837-2.316-26.812s.779-17.995 2.316-26.812a20.001 20.001 0 00-9.707-20.757l-44.695-25.792 40.023-69.286 44.735 25.815a19.999 19.999 0 0022.842-1.994c13.885-11.635 29.494-20.661 46.397-26.827a20 20 0 0013.145-18.789V40h80.06v51.559a20 20 0 0013.145 18.789c16.903 6.166 32.512 15.192 46.397 26.827a20 20 0 0022.842 1.994l44.735-25.815 40.023 69.286-44.695 25.792a20.002 20.002 0 00-9.707 20.757c1.537 8.816 2.316 17.837 2.316 26.812s-.779 17.995-2.316 26.812a20.001 20.001 0 009.707 20.757l44.695 25.792z"/></svg>