<svg height="512pt" viewBox="0 -39 512 512" width="512pt" xmlns="http://www.w3.org/2000/svg"><path d="M510.973 249.676l-78.664-236A20.002 20.002 0 00413.332 0h-78.668c-11.043 0-20 8.953-20 20v124.973L186.277 80.777c-13.273-6.632-28.945 3.028-28.945 17.891v46.305L28.945 80.777C15.672 74.145 0 83.805 0 98.668v314.664c0 11.047 8.953 20 20 20h472c11.047 0 20-8.953 20-20V256c0-2.148-.348-4.285-1.027-6.324zM472 393.336H40V131.027l128.39 64.196c13.27 6.632 28.942-3.024 28.942-17.891v-46.305l128.39 64.196c13.27 6.632 28.942-3.028 28.942-17.891V40h44.254L472 259.246zM144.559 256c0 11.047-8.954 20-20 20H85.227c-11.047 0-20-8.953-20-20s8.953-20 20-20h39.332c11.046 0 20 8.953 20 20zm151.109 0c0 11.047-8.953 20-20 20h-39.332c-11.047 0-20-8.953-20-20s8.953-20 20-20h39.332c11.043 0 20 8.953 20 20zm0 0"/></svg>