<svg version="1.1" id="Capa_1" xmlns="http://www.w3.org/2000/svg" x="0" y="0" viewBox="0 0 512.014 512.014" xml:space="preserve"><path d="M69.503 310.856l-53.333-32c-5.056-3.072-11.605-1.387-14.635 3.669-3.029 5.056-1.408 11.605 3.648 14.635l53.333 32a10.549 10.549 0 005.483 1.515c3.605 0 7.147-1.856 9.152-5.184 3.029-5.057 1.408-11.606-3.648-14.635zM244.522 96.498c-41.045-12.523-89.408-14.464-143.659-5.867-15.317 2.496-30.976-1.813-42.773-11.648L17.492 45.149c-4.544-3.797-11.243-3.136-15.019 1.365-3.776 4.523-3.157 11.243 1.365 15.019l40.597 33.835c16.533 13.76 38.293 19.712 59.776 16.341 51.029-8.149 96.149-6.379 134.08 5.227 1.045.299 2.091.448 3.115.448 4.587 0 8.811-2.965 10.197-7.573 1.729-5.633-1.449-11.585-7.081-13.313zm211.093 217.408L295.039 173.32c-4.459-3.883-11.2-3.456-15.061 1.003a10.626 10.626 0 00.981 15.04l160.64 140.629c4.075 3.52 6.4 8.64 6.4 14.123 0 10.219-8.32 18.56-18.56 18.56h-2.859c-4.331 0-8.555-1.515-11.861-4.267l-1.728-1.429c-.192-.149-.384-.32-.597-.491l-117.547-97.963c-4.544-3.797-11.243-3.157-15.04 1.344-3.776 4.523-3.157 11.243 1.365 15.019l117.952 98.304c3.968 3.477 6.208 8.469 6.208 13.803 0 10.112-8.235 18.347-18.347 18.347h-3.157c-4.267 0-8.448-1.493-11.712-4.224l-22.421-18.688a43.591 43.591 0 00-.427-.363L252.18 301.17c-4.565-3.797-11.264-3.136-15.04 1.344-3.776 4.523-3.157 11.243 1.365 15.019l97.365 81.152c3.477 3.008 5.461 7.381 5.461 12.011 0 8.811-7.168 15.979-15.979 15.979-7.915 0-15.68-2.731-21.632-7.488l-51.477-43.797c-4.459-3.797-11.221-3.264-15.04 1.216-3.819 4.501-3.264 11.221 1.216 15.04l51.733 44.011c9.941 7.957 22.464 12.352 35.2 12.352 17.429 0 32.107-12.011 36.181-28.181a39.769 39.769 0 0022.293 6.848h3.157c21.888 0 39.68-17.813 39.68-39.744 0-.981-.021-1.963-.107-2.923h2.88c21.995 0 39.893-17.899 39.893-39.979.003-11.585-5.01-22.572-13.714-30.124z"/><path d="M294.036 411.037c-4.16-4.16-10.923-4.16-15.083 0s-4.16 10.923 0 15.083c2.773 2.773.704 13.333-4.757 18.795-4.032 4.032-10.773 4.288-15.339-.256l-27.584-25.749c-4.331-4.032-11.051-3.819-15.083.512-4.011 4.288-3.797 11.051.512 15.061l27.328 25.493c6.059 6.037 14.101 9.365 22.635 9.365s16.576-3.328 22.613-9.344c12.673-12.693 17.409-36.309 4.758-48.96zm216.427-128.512c-3.029-5.035-9.579-6.763-14.635-3.669l-53.333 32c-5.035 3.029-6.677 9.6-3.648 14.635a10.67 10.67 0 009.152 5.184c1.877 0 3.776-.469 5.483-1.515l53.333-32c5.035-3.03 6.677-9.6 3.648-14.635zm-1.024-236.117c-3.84-4.459-10.56-4.971-15.04-1.173l-72.32 61.973c-36.352 4.864-62.528-3.797-85.717-11.435-16.277-5.376-31.659-10.432-48.363-10.432-28.8 0-49.771 13.781-68.288 25.984-4.032 2.645-7.979 5.227-11.861 7.552-.747.427-1.429.981-2.048 1.6l-56.512 56.491a46.23 46.23 0 00-8.661 53.461c7.893 15.765 23.765 25.579 41.408 25.579h8.533c10.603 0 20.971-3.669 29.163-10.325 4.139-3.349 8.875-7.317 13.952-11.563 18.112-15.168 45.504-38.059 58.069-42.795 5.504-2.069 8.299-8.213 6.229-13.739-2.069-5.504-8.235-8.363-13.739-6.229-14.805 5.547-36.907 23.509-64.256 46.379-5.013 4.181-9.685 8.085-13.717 11.371-4.48 3.648-9.92 5.568-15.723 5.568h-8.533c-9.515 0-18.069-5.291-22.315-13.781-4.8-9.643-2.923-21.248 4.672-28.843l55.595-55.573c3.755-2.304 7.552-4.8 11.456-7.36 16.789-11.029 34.155-22.443 56.576-22.443 13.291 0 26.453 4.331 41.707 9.344 24.811 8.213 55.701 18.453 98.581 11.861a10.453 10.453 0 005.333-2.432l74.667-64c4.48-3.84 4.992-10.582 1.152-15.04zM96.49 288.008c-10.581 0-20.373 5.248-26.219 14.037l-11.648 17.451a31.392 31.392 0 00-5.291 17.472v4.843c0 17.387 14.144 31.531 31.509 31.531 10.581 0 20.373-5.248 26.219-14.037l11.648-17.451a31.392 31.392 0 005.291-17.472v-4.843c0-17.387-14.144-31.531-31.509-31.531zm10.176 36.352c0 2.027-.597 3.989-1.728 5.675L93.29 347.506a10.093 10.093 0 01-8.448 4.523c-5.611 0-10.176-4.565-10.176-10.197v-4.843c0-2.027.597-3.989 1.707-5.653l11.669-17.472a10.093 10.093 0 018.448-4.523c5.611 0 10.176 4.565 10.176 10.176v4.843z"/><path d="M138.431 309.32c-9.877 0-19.307 4.715-25.216 12.608l-21.589 28.757c-4.053 5.419-6.293 12.16-6.293 18.944v4.181c0 17.387 14.144 31.531 32.235 31.531 9.877 0 19.307-4.715 25.216-12.587l21.589-28.757c4.053-5.419 6.293-12.16 6.293-18.944v-4.181c0-17.387-14.144-31.531-32.235-31.552zm10.901 35.733c0 2.197-.725 4.373-2.027 6.123l-21.589 28.779c-1.92 2.539-4.949 4.053-8.875 4.053-5.611 0-10.176-4.565-10.176-10.197v-4.181c0-2.197.725-4.373 2.027-6.123l21.589-28.779c1.92-2.539 4.949-4.053 8.875-4.053 5.611 0 10.176 4.565 10.176 10.197v4.181z"/><path d="M181.098 330.653c-9.877 0-19.307 4.715-25.216 12.608l-21.589 28.757c-4.053 5.419-6.293 12.16-6.293 18.944v4.181c0 17.387 14.144 31.531 32.235 31.531 9.877 0 19.307-4.715 25.216-12.587l21.589-28.757c4.053-5.419 6.293-12.16 6.293-18.944v-4.181c-.001-17.387-14.145-31.531-32.235-31.552zm10.901 35.733c0 2.197-.725 4.373-2.027 6.123l-21.589 28.779c-1.92 2.539-4.949 4.053-8.875 4.053-5.611 0-10.176-4.565-10.176-10.197v-4.181c0-2.197.725-4.373 2.027-6.123l21.589-28.779c1.92-2.539 4.949-4.053 8.875-4.053 5.611 0 10.176 4.565 10.176 10.197v4.181z"/><path d="M223.764 351.986c-9.877 0-19.307 4.715-25.216 12.608l-21.589 28.757c-4.053 5.419-6.293 12.16-6.293 18.944v4.181c0 17.387 14.144 31.531 32.235 31.531 9.877 0 19.307-4.715 25.216-12.608l21.589-28.757c4.053-5.419 6.293-12.16 6.293-18.944v-4.181c0-17.387-14.123-31.531-32.235-31.531zm10.902 35.734c0 2.197-.725 4.373-2.027 6.123l-21.589 28.779c-1.92 2.539-4.949 4.053-8.875 4.053-5.611 0-10.176-4.565-10.176-10.197v-4.181c0-2.197.725-4.373 2.027-6.123l21.589-28.779c1.92-2.539 4.949-4.053 8.875-4.053 5.611 0 10.176 4.565 10.176 10.197v4.181z"/></svg>