<svg version="1.1" id="Capa_1" xmlns="http://www.w3.org/2000/svg" x="0" y="0" viewBox="0 0 512 512" xml:space="preserve"><path d="M374 39.221c-42.59 0-79.926 18.991-107.971 54.921A181.741 181.741 0 00256 108.371a181.553 181.553 0 00-10.029-14.229C217.926 58.212 180.59 39.221 138 39.221c-80.456 0-138 67.367-138 148.204 0 92.433 75.757 179.547 245.637 282.46 3.185 1.929 6.774 2.894 10.363 2.894s7.178-.964 10.363-2.893C436.243 366.973 512 279.859 512 187.426c0-80.795-57.497-148.205-138-148.205zm45.157 263.299C383.79 341.982 330.345 383.534 256 429.343c-74.345-45.809-127.79-87.361-163.157-126.822C57.285 262.845 40 225.197 40 187.426c0-58.204 39.334-108.205 98-108.205 29.876 0 55.35 12.99 75.715 38.61 16.284 20.489 23.145 41.646 23.193 41.797a20 20 0 0038.186 0c.063-.202 6.718-20.699 22.467-40.875C318.036 92.521 343.754 79.22 374 79.22c58.728 0 98 50.049 98 108.205 0 37.771-17.285 75.419-52.843 115.095z"/></svg>