<svg xmlns="http://www.w3.org/2000/svg" viewBox="0 0 512 512"><path d="M374 39.2c-42.6 0-79.9 19-108 54.9-3.7 4.8-7.1 9.6-10 14.2-3-4.6-6.3-9.4-10-14.2-28-35.9-65.4-54.9-108-54.9-80.5 0-138 67.4-138 148.2C0 279.9 75.8 367 245.6 469.9c3.2 1.9 6.8 2.9 10.4 2.9 3.6 0 7.2-1 10.4-2.9C436.2 367 512 279.9 512 187.4c0-80.8-57.5-148.2-138-148.2z"/><path d="M419.2 302.5c-35.4 39.5-88.8 81-163.2 126.8-74.3-45.8-127.8-87.3-163.2-126.8C57.3 262.8 40 225.2 40 187.4c0-58.2 39.3-108.2 98-108.2 29.9 0 55.4 13 75.7 38.6 16.3 20.5 23.1 41.6 23.2 41.8 2.6 8.4 10.3 14 19.1 14s16.5-5.7 19.1-14c.1-.2 6.7-20.7 22.5-40.9C318 92.5 343.8 79.2 374 79.2c58.7 0 98 50 98 108.2 0 37.8-17.3 75.4-52.8 115.1z"/></svg>