<svg version="1.1" id="Capa_1" xmlns="http://www.w3.org/2000/svg" x="0" y="0" viewBox="0 0 512 512" xml:space="preserve"><path d="M371.643 0H140.357C62.964 0 0 62.964 0 140.358v231.285C0 449.037 62.964 512 140.357 512h231.286C449.037 512 512 449.037 512 371.643V140.358C512 62.964 449.037 0 371.643 0zm110.121 371.643c0 60.721-49.399 110.121-110.121 110.121H140.357c-60.721 0-110.121-49.399-110.121-110.121V140.358c0-60.722 49.4-110.122 110.121-110.122h231.286c60.722 0 110.121 49.4 110.121 110.122v231.285z"/><path d="M256 115.57c-77.434 0-140.431 62.997-140.431 140.431S178.565 396.432 256 396.432c77.434 0 140.432-62.998 140.432-140.432S333.434 115.57 256 115.57zm0 250.627c-60.762 0-110.196-49.435-110.196-110.197S195.238 145.804 256 145.804c60.763 0 110.197 49.435 110.197 110.197S316.763 366.197 256 366.197zM404.831 64.503c-23.526 0-42.666 19.141-42.666 42.667 0 23.526 19.14 42.666 42.666 42.666 23.526 0 42.666-19.141 42.666-42.667s-19.14-42.666-42.666-42.666zm0 55.096c-6.853 0-12.43-5.576-12.43-12.43s5.577-12.43 12.43-12.43c6.854 0 12.43 5.577 12.43 12.43s-5.576 12.43-12.43 12.43z"/></svg>