<svg xmlns="http://www.w3.org/2000/svg" viewBox="0 0 512 512"><path d="M104.875 167.394H15.198C6.805 167.394 0 174.199 0 182.592V486.91c0 8.393 6.805 15.198 15.198 15.198h89.678c8.393 0 15.198-6.805 15.198-15.198V182.592c-.001-8.393-6.805-15.198-15.199-15.198zM89.678 471.712H30.396V197.79h59.282v273.922zM474.77 216.34c-26.278-32.02-63.182-48.945-106.721-48.945-23.574 0-44.423 4.958-62.316 14.78-.222-8.2-6.938-14.78-15.192-14.78h-89.678c-8.393 0-15.198 6.805-15.198 15.198V486.91c0 8.393 6.805 15.198 15.198 15.198h89.678c8.393 0 15.198-6.805 15.198-15.198V330.562c0-23.762 19.332-43.094 43.093-43.094 23.762 0 43.095 19.332 43.095 43.094V486.91c0 8.393 6.805 15.198 15.198 15.198h89.678c8.393 0 15.198-6.805 15.198-15.198V330.562c-.001-44.404-13.223-84.97-37.231-114.222zm6.834 255.372h-59.282v-141.15c0-40.523-32.968-73.49-73.491-73.49-40.522 0-73.489 32.967-73.489 73.49v141.15H216.06V197.789h59.282v14.852a15.198 15.198 0 0026.054 10.636c16.569-16.912 38.994-25.488 66.652-25.488 78.443 0 113.555 66.684 113.555 132.772v141.151zM60.037 9.892C26.933 9.892 0 36.824 0 69.928s26.933 60.036 60.037 60.036 60.037-26.932 60.037-60.036c-.001-33.104-26.933-60.036-60.037-60.036zm0 89.677c-16.344 0-29.641-13.296-29.641-29.641s13.297-29.641 29.641-29.641c16.344 0 29.641 13.297 29.641 29.641 0 16.344-13.298 29.641-29.641 29.641z"/></svg>