<svg id="Capa_1" height="512" viewBox="0 0 511.998 511.998" width="512" xmlns="http://www.w3.org/2000/svg"><path d="M506.142 399.19l-78.667-78.666c-7.811-7.811-20.474-7.811-28.284 0L374 345.716l-24.344-24.344C377.36 287.432 394 244.125 394 197 394 88.374 305.626 0 197 0S0 88.374 0 197s88.374 197 197 197c47.125 0 90.432-16.64 124.372-44.343L345.715 374l-25.191 25.19c-7.806 7.807-7.81 20.475 0 28.285l78.667 78.667c7.807 7.806 20.475 7.808 28.284 0l78.667-78.667c7.805-7.805 7.81-20.475 0-28.285zM40 197c0-86.57 70.43-157 157-157s157 70.43 157 157-70.43 157-157 157S40 283.57 40 197zm373.333 266.716l-50.383-50.383 50.383-50.382 50.382 50.382z"/></svg>