<svg height="511pt" viewBox="-39 0 511 511.999" width="511pt" xmlns="http://www.w3.org/2000/svg"><path d="M217.207 276.008c54.406 0 98.672-44.262 98.672-98.668s-44.266-98.672-98.672-98.672-98.672 44.266-98.672 98.672c.004 54.406 44.266 98.668 98.672 98.668zm0-157.336c32.352 0 58.668 26.316 58.668 58.668 0 32.351-26.316 58.668-58.668 58.668-32.352 0-58.668-26.317-58.668-58.668 0-32.352 26.316-58.668 58.668-58.668zm215.719 319.394l-57.797-180.09C435.055 141.099 350.055 0 217.207 0 84.293 0-.602 141.172 59.285 257.977L1.488 438.067c-5.14 16.027 10.68 30.87 26.344 24.734l61.652-24.164 31.164 62.324c7.356 14.707 28.415 14.726 35.778 0l60.781-121.559 60.781 121.559c7.352 14.707 28.414 14.726 35.778 0l31.16-62.324 61.656 24.164c15.672 6.14 31.484-8.715 26.344-24.735zM217.207 40c75.727 0 137.336 61.61 137.336 137.34 0 75.726-61.61 137.336-137.336 137.336-75.73 0-137.34-61.61-137.34-137.336 0-75.73 61.61-137.34 137.34-137.34zm-78.668 407.293l-21.445-42.89c-4.63-9.255-15.555-13.454-25.188-9.676l-39.46 15.46 35.73-111.328c25.625 27.196 59.719 46.32 98.027 53.102zm203.969-52.566c-9.633-3.778-20.559.421-25.188 9.675l-21.445 42.891-47.664-95.332c38.309-6.781 72.402-25.906 98.027-53.098l35.73 111.328zm0 0"/></svg>