<svg xmlns="http://www.w3.org/2000/svg" viewBox="0 0 512.5 512.5"><path class="st0" d="M256.3 277.3c-76.6 0-138.7-62.1-138.7-138.7S179.7 0 256.3 0 395 62.1 395 138.7c-.2 76.5-62.2 138.5-138.7 138.6zm0-256C191.5 21.3 139 73.8 139 138.6S191.4 256 256.3 256s117.3-52.5 117.3-117.3C373.5 73.9 321 21.4 256.3 21.3z"/><path class="st0" d="M256.3 213.3c-41.2 0-74.7-33.4-74.7-74.7S215 64 256.3 64 331 97.4 331 138.7s-33.5 74.6-74.7 74.6zm0-128c-29.5 0-53.3 23.9-53.3 53.3s23.9 53.3 53.3 53.3 53.3-23.9 53.3-53.3-23.9-53.3-53.3-53.3zm96 426.7c-11.3 0-22.2-4.5-30.2-12.5l-65.8-68.1-65.7 68c-16.8 16.3-43.5 16.3-60.5.1-16.7-16.7-16.7-43.7 0-60.3l64.4-63.1c-4-1-7.9-2.1-11.6-3.2-22.1-7-43.2-17-62.5-29.9-15.1-9.9-24.1-26.8-24.2-44.8-.2-15 8.2-28.7 21.7-35.3 13.8-6.9 30.4-5.4 42.7 4 57 41.6 134.3 41.6 191.3 0 12.3-9.3 28.8-10.9 42.7-4 13.5 6.6 22 20.3 21.8 35.3 0 18-9.1 34.9-24.1 44.8-19.3 12.9-40.3 22.9-62.5 29.9-3.8 1.2-7.7 2.3-11.7 3.3l64.4 63c16.7 16.6 16.7 43.7.1 60.3-8.2 8-19 12.5-30.3 12.5zm-96-106.7c2.9 0 5.7 1.2 7.7 3.2l73.4 76c8.5 7.9 21.6 7.8 30-.1 8.3-8.3 8.3-21.8 0-30.2l-78.6-76.8c-4.2-4.1-4.3-10.9-.2-15.1 1.6-1.6 3.6-2.7 5.8-3.1 9.8-1.6 19.4-3.9 28.9-6.8 20.2-6.3 39.4-15.5 57-27.2 9.1-6 14.6-16.2 14.6-27.1.2-6.9-3.7-13.2-9.9-16.2-6.6-3.3-14.6-2.6-20.4 2-64.3 48-152.5 48-216.8 0-5.8-4.6-13.8-5.3-20.4-2-6.2 3-10 9.4-9.9 16.2 0 10.9 5.5 21.1 14.6 27.1 17.6 11.7 36.8 20.8 57 27.1 9.5 2.9 19.1 5.1 28.8 6.7 5.8 1 9.7 6.5 8.7 12.3-.4 2.2-1.5 4.3-3.1 5.8l-78.7 77c-8.3 8.3-8.3 21.8 0 30.1 8.4 8.1 21.7 8.1 30.2 0l73.2-75.8c2.3-1.9 5.1-3.1 8.1-3.1z"/></svg>