<svg height="512pt" viewBox="0 0 512 512" width="512pt" xmlns="http://www.w3.org/2000/svg"><path d="M492 285.941H385.906l113.555-113.554c7.805-7.805 7.809-20.473 0-28.282L367.895 12.54c-7.81-7.809-20.473-7.809-28.282 0L226.06 126.094V20c0-11.047-8.954-20-20-20H20C8.953 0 0 8.953 0 20v472c0 11.047 8.953 20 20 20h472c11.047 0 20-8.953 20-20V305.941c0-11.046-8.953-20-20-20zM353.754 54.97L457.03 158.246 329.336 285.941H122.78zM40 40h146.059v126.094L66.21 285.94H40zm432 432H40V325.941h432zM70 398.973c0-13.809 11.191-25 25-25s25 11.191 25 25c0 13.804-11.191 25-25 25s-25-11.196-25-25zm0 0"/></svg>