<svg height="512" viewBox="0 0 512.084 512.084" width="512" xmlns="http://www.w3.org/2000/svg"><path d="M478.324 229.113L270.158 437.33c-51.305 51.319-112.676 44.617-115.854 45.205-41.213 0-79.959-16.049-109.102-45.19C16.06 408.202.012 369.456.012 328.243c.479-2.522-5.593-65.116 45.423-115.914L163.567 94.696c7.827-7.793 20.489-7.769 28.284.06 7.794 7.827 7.768 20.49-.06 28.284L73.66 240.673c-38.542 38.378-33.192 85.108-33.647 87.57 0 30.528 11.889 59.23 33.476 80.816 21.586 21.587 50.287 33.476 80.816 33.476 2.875-.518 48.936 5.155 87.566-33.486l208.165-208.217c29.307-29.315 29.348-76.62.353-106.012l-2.851-2.889c-29.933-30.343-78.056-29.25-106.941-.362l-213.511 213.51c-11.502 11.502-10.922 29.802.036 40.723l9.727 9.694c11.368 11.329 29.553 11.019 40.604-.078l142.5-143.106c7.794-7.828 20.457-7.854 28.284-.06s7.854 20.457.06 28.284l-142.5 143.106c-26.46 26.573-69.984 27.291-97.184.186l-9.728-9.694c-26.42-26.331-27.41-70.011-.083-97.34l213.51-213.51c45.348-45.346 118.934-44.826 163.702.556l2.851 2.889c44.414 45.021 44.351 117.478-.541 162.384z"/></svg>