<svg xmlns="http://www.w3.org/2000/svg" viewBox="0 0 512 512"><path d="M437.02 74.979C388.669 26.629 324.381 0 256.002 0c-11.046 0-20 8.954-20 20s8.954 20 20 20c57.696 0 111.937 22.468 152.734 63.264C449.532 144.062 472 198.303 472 255.998c0 11.046 8.954 20 20 20s20-8.954 20-20c0-68.379-26.628-132.666-74.98-181.019zM327.591 291.887c-7.81-7.811-20.473-7.811-28.284 0l-28.659 28.66c-31.419-19.858-59.338-47.776-79.195-79.195l28.66-28.659c7.809-7.81 7.806-20.479 0-28.285L106.977 71.27a20.001 20.001 0 00-28.284.001l-64.025 64.026C2.885 147.08-2.254 163.836.922 180.119c30.29 155.294 175.665 300.669 330.959 330.959 16.228 3.167 33.003-1.926 44.821-13.744l64.026-64.026a20 20 0 000-28.286L327.591 291.887zm20.827 177.161c-2.358 2.36-5.678 3.394-8.88 2.771C199.995 444.602 67.386 311.938 40.18 172.462c-.624-3.201.412-6.521 2.77-8.878l.001-.002 49.884-49.885 84.851 84.851-25.456 25.455a20.001 20.001 0 00-3.413 23.726c26.291 48.16 67.292 89.16 115.451 115.451a19.999 19.999 0 0023.725-3.412l25.456-25.456 84.852 84.852-49.883 49.884z"/></svg>