<svg height="512pt" viewBox="-53 0 512 512.001" width="512pt" xmlns="http://www.w3.org/2000/svg"><path d="M386 86.684c-94.512 0-166.895-78.715-168.113-80.055-7.914-8.82-21.79-8.856-29.762-.008-.723.797-73.285 80.063-168.125 80.063-11.047 0-20 8.953-20 20 0 175.78 35.453 327.863 194.418 403.382a20.012 20.012 0 0017.164 0C370.906 434.375 406 281.77 406 106.684c0-11.047-8.953-20-20-20zm-183 383.02C72.727 403.05 42.117 273.245 40.121 125.741 116.777 118.582 176.47 72.391 203 48.094c26.531 24.297 86.227 70.488 162.879 77.648C363.883 273.277 333.258 403.06 203 469.703zM182.46 275.48l81.4-81.398c7.808-7.809 20.472-7.812 28.28 0 7.813 7.813 7.813 20.473.005 28.285l-95.54 95.54c-7.808 7.808-20.476 7.804-28.285 0l-54.46-54.462c-7.813-7.812-7.813-20.476 0-28.285 7.808-7.812 20.472-7.812 28.285 0zm0 0"/></svg>