<svg height="511pt" viewBox="0 -58 511.999 511" width="511pt" xmlns="http://www.w3.org/2000/svg"><path d="M491.992 90.496h-55.996v-30c0-33.082-26.918-59.996-60-59.996H316c-11.047 0-20 8.953-20 20 0 11.043 8.953 20 20 20h59.996c11.027 0 20 8.969 20 19.996v30H116.004v-30c0-11.027 8.973-19.996 20-19.996H196c11.047 0 20-8.957 20-20 0-11.047-8.953-20-20-20h-59.996c-33.082 0-60 26.914-60 59.996v30H20.008c-12.844 0-22.371 11.961-19.492 24.48L61.672 380.97a19.998 19.998 0 0019.488 15.52h349.676c9.32 0 17.402-6.438 19.492-15.52l61.152-265.992c2.88-12.52-6.64-24.48-19.488-24.48zm-77.078 265.992H97.086L45.125 130.496h421.75zM226 193.492v100c0 11.043-8.953 20-20 20-11.043 0-20-8.957-20-20v-100c0-11.043 8.957-19.996 20-19.996 11.047 0 20 8.953 20 19.996zm99.996 0v100c0 11.043-8.953 20-19.996 20-11.047 0-20-8.957-20-20v-100c0-11.043 8.953-19.996 20-19.996 11.043 0 19.996 8.953 19.996 19.996zm0 0"/></svg>