<svg height="511pt" viewBox="0 -47 512 511" width="511pt" xmlns="http://www.w3.org/2000/svg"><path d="M491.988 100.457h-38.84L358.031 6.285c-7.793-7.715-20.344-7.715-28.14 0l-29.989 29.692-29.988-29.692c-7.793-7.715-20.348-7.715-28.14 0l-95.118 94.172H122.54l-7.445-23.906A20.004 20.004 0 0095.996 62.5H20c-11.047 0-20 8.953-20 20s8.953 20 20 20h61.277c3.453 11.082 69.414 222.86 71.621 229.95a20.008 20.008 0 0019.098 14.05h255.816a20.003 20.003 0 0019.094-14.05l64.176-206.044c4.016-12.894-5.648-25.949-19.094-25.949zM343.961 48.645l52.336 51.812H291.629zm-88.117 0l15.633 15.472-36.704 36.34h-31.261zM413.094 306.5h-226.38l-51.718-166.043h329.816zm-4.188 85c0 13.809-11.195 25-25 25-13.808 0-25-11.191-25-25s11.192-25 25-25c13.805 0 25 11.191 25 25zm-168 0c0 13.809-11.195 25-25 25-13.808 0-25-11.191-25-25s11.192-25 25-25c13.805 0 25 11.191 25 25zm0 0"/></svg>