<svg version="1.1" id="Capa_1" xmlns="http://www.w3.org/2000/svg" x="0" y="0" viewBox="0 0 512 512" xml:space="preserve"><path d="M492.001 0h-236a20 20 0 00-14.143 5.858l-236 236c-7.811 7.811-7.811 20.474 0 28.284l236 236c7.81 7.81 20.474 7.811 28.285 0l236-236A20.001 20.001 0 00512 256V20c.001-11.046-8.953-20-19.999-20zm-236 463.716L48.286 256l37.715-37.715 207.716 207.716-37.716 37.715zm216-216l-150 150L114.286 190l150-150h207.715v207.716z"/><path d="M376.001 76c-33.084 0-60 26.916-60 60s26.917 60 60 60c33.084 0 60-26.916 60-60s-26.916-60-60-60zm0 80c-11.028 0-20-8.972-20-20s8.972-20 20-20 20 8.972 20 20-8.972 20-20 20z"/></svg>