<svg version="1.1" id="Capa_1" xmlns="http://www.w3.org/2000/svg" x="0" y="0" viewBox="0 0 512.003 512.003" xml:space="preserve"><path d="M509.443 407.14l-17.623-41.416c-15.368-36.719-35.66-68.476-60.45-94.641 32.574-26.069 65.262-71.487 65.262-148.738V92.36c0-17.609-14.326-31.935-31.935-31.935h-59.97c-17.609 0-31.935 14.326-31.935 31.935v29.985c0 22.29-4.135 36.775-13.408 46.965-6.484 7.127-16.096 12.772-28.687 16.867V75.543c0-8.349-6.769-15.118-15.118-15.118h-112.29c-22.481 0-40.77 18.289-40.77 40.77 0 18.962 12.883 35.272 31.33 39.663l4.913 1.169a10.497 10.497 0 018.094 10.247v155.328c-13.441-9.207-25.993-21.41-37.021-36.088-29.661-39.48-45.996-92.456-45.996-149.171V92.36c0-17.609-14.326-31.935-31.935-31.935h-59.97C14.325 60.425 0 74.751 0 92.36v29.985c0 85.047 26.115 165.634 73.538 226.914 51.061 65.982 120.398 102.32 195.239 102.32h29.985c17.609 0 31.935-14.326 31.935-31.935v-73.561c19.377 16.685 35.109 39.308 46.891 67.473l7.703 18.413a31.856 31.856 0 0029.46 19.609h65.304a31.862 31.862 0 0026.641-14.321 31.85 31.85 0 002.747-30.117zm-27.972 13.44c-.503.762-1.166.762-1.416.762h-65.304a1.694 1.694 0 01-1.566-1.042l-7.703-18.413c-16.766-40.079-40.861-70.796-71.611-91.298a156.643 156.643 0 00-10.954-6.66 15.12 15.12 0 00-15.007.186 15.12 15.12 0 00-7.45 13.03v102.498a1.7 1.7 0 01-1.698 1.698h-29.985c-65.276 0-126.12-32.171-171.326-90.587-43.343-56.011-67.213-130.026-67.213-208.41V92.36a1.7 1.7 0 011.698-1.698h59.969a1.7 1.7 0 011.698 1.698v29.985c0 63.223 18.488 122.649 52.056 167.332 19.804 26.358 44.145 46.197 70.392 57.369a15.12 15.12 0 0021.04-13.911v-180.86c0-18.963-12.883-35.274-31.33-39.664l-4.912-1.168a10.5 10.5 0 01-8.095-10.248c0-5.808 4.725-10.534 10.534-10.534h97.171v114.795a15.118 15.118 0 0017.828 14.874c28.277-5.15 49.63-15.47 63.461-30.672 14.716-16.174 21.28-36.933 21.28-67.314V92.359a1.7 1.7 0 011.698-1.698h59.97a1.7 1.7 0 011.698 1.698v29.985c0 75.718-36.186 114.757-66.544 134.175a15.116 15.116 0 00-2.094 23.857c27.609 25.42 49.876 58.074 66.184 97.054l.036.085 17.643 41.464c.096.23.356.84-.148 1.601z"/></svg>