<svg id="Layer_1" height="512" viewBox="0 0 496 496" width="512" xmlns="http://www.w3.org/2000/svg"><path d="M448 297.469H148v-145c0-8.837-7.163-16-16-16s-16 7.163-16 16v145H48c-26.468 0-48 21.532-48 48v82c0 26.468 21.532 48 48 48h400c26.468 0 48-21.532 48-48v-82c0-26.468-21.532-48-48-48zm16 130c0 8.822-7.178 16-16 16H48c-8.822 0-16-7.178-16-16v-82c0-8.822 7.178-16 16-16h400c8.822 0 16 7.178 16 16zm-376-65c-13.233 0-24 10.767-24 24s10.767 24 24 24 24-10.767 24-24-10.767-24-24-24zm72 0c-13.233 0-24 10.767-24 24s10.767 24 24 24 24-10.767 24-24-10.767-24-24-24zm72 0c-13.233 0-24 10.767-24 24s10.767 24 24 24 24-10.767 24-24-10.767-24-24-24zm200 24c0 8.837-7.163 16-16 16h-87c-8.837 0-16-7.163-16-16s7.163-16 16-16h87c8.837 0 16 7.163 16 16zM168.215 169.49c12.372-26.328-6.799-57.021-36.215-57.021-29.438 0-48.58 30.707-36.215 57.021 3.758 7.998.32 17.528-7.677 21.286-7.996 3.758-17.527.32-21.286-7.677C44.555 135.708 79.045 80.469 132 80.469c52.966 0 87.444 55.24 65.178 102.63-3.756 7.993-13.282 11.436-21.286 7.677-7.997-3.758-11.435-13.288-7.677-21.286zM38.662 245.807c-51.467-51.467-51.467-135.209 0-186.676s135.209-51.467 186.676 0 51.467 135.209 0 186.676a15.95 15.95 0 01-11.313 4.687c-14.124 0-21.424-17.205-11.313-27.313 38.99-38.99 38.99-102.432 0-141.422-39.08-39.08-102.336-39.085-141.422 0-38.99 38.99-38.99 102.432 0 141.422 6.249 6.248 6.249 16.379 0 22.627-6.249 6.247-16.38 6.247-22.628-.001z"/></svg>