<svg version="1.1" id="Capa_1" xmlns="http://www.w3.org/2000/svg" x="0" y="0" viewBox="0 0 512 512" xml:space="preserve"><path d="M445.481 86.676H66.519C29.84 86.676 0 116.516 0 153.195v205.61c0 36.679 29.84 66.519 66.519 66.519h378.962c36.678 0 66.519-29.84 66.519-66.518V153.195c0-36.679-29.84-66.519-66.519-66.519zm36.283 272.13c0 20.007-16.276 36.283-36.283 36.283H66.519c-20.007 0-36.283-16.276-36.283-36.283V153.195c0-20.007 16.276-36.283 36.283-36.283h378.962c20.007 0 36.283 16.276 36.283 36.283v205.611z"/><path d="M353.259 242.908l-144.544-83.452a15.116 15.116 0 00-22.677 13.092v166.904a15.116 15.116 0 0015.118 15.118 15.1 15.1 0 007.559-2.026l144.544-83.452a15.118 15.118 0 000-26.184zm-136.985 70.36V198.733l99.19 57.268-99.19 57.267z"/></svg>