<svg xmlns="http://www.w3.org/2000/svg"><symbol viewBox="0 0 512 512" id="avatar" xmlns="http://www.w3.org/2000/svg"><path d="M421.184 384.96l-81.728-20.437-6.955-27.819c21.867-21.653 36.843-51.392 41.28-81.899 12.117-3.413 21.504-13.803 23.125-26.837l5.333-42.667c1.131-9.003-1.643-18.112-7.616-24.939a32.11 32.11 0 00-12.8-8.896l1.963-40.171 7.979-8c12.011-12.779 21.973-34.688 1.152-66.475-16-24.425-43.178-36.82-80.81-36.82-14.848 0-49.024 0-80.853 21.376C140.373 23.275 128 65.493 128 106.667c0 9.579 2.325 31.147 3.861 44.16a31.815 31.815 0 00-14.336 9.344 32.03 32.03 0 00-7.765 25.152l5.333 42.667c1.749 13.909 12.309 24.853 25.664 27.456 4.416 29.333 18.624 58.112 39.232 79.403l-7.424 29.717-81.728 20.437C37.333 398.336 0 446.165 0 501.333 0 507.221 4.779 512 10.667 512h490.667c5.888 0 10.667-4.821 10.667-10.709a119.728 119.728 0 00-90.817-116.331z"/></symbol><symbol viewBox="0 0 512 512" id="box" xmlns="http://www.w3.org/2000/svg"><path d="M492 0H131.367a19.999 19.999 0 00-14.144 5.86L5.855 117.226C2.273 120.809 0 125.937 0 131.37V492c0 11.047 8.953 20 20 20h360.633a20.078 20.078 0 0014.101-5.82c.012-.016.028-.024.043-.04l111.368-111.367a19.995 19.995 0 005.855-14.14V20.003C512 9.157 503.187 0 492 0zM372.348 111.367H248.602L319.969 40h123.746zm-214.348 40h84.633V236H158zM139.652 40h123.746l-71.367 71.367H68.285zm220.98 432H40V151.367h78V256c0 11.047 8.953 20 20 20h124.633c11.047 0 20-8.953 20-20V151.367h78zm40-28.285V139.652L472 68.285v304.063zm0 0"/></symbol><symbol viewBox="0 0 24 24" id="check" xmlns="http://www.w3.org/2000/svg"><path d="M9 16.17L4.83 12l-1.42 1.41L9 19 21 7l-1.41-1.41z"/></symbol><symbol viewBox="0 0 496 496" id="credit-card" xmlns="http://www.w3.org/2000/svg"><path d="M377.406 345.257c-6.849 5.587-16.926 4.562-22.512-2.285-5.585-6.848-4.562-16.927 2.285-22.512 49.624-40.473 49.247-116.049-.642-156.056-6.894-5.528-8-15.599-2.472-22.492 5.527-6.895 15.598-8 22.492-2.473 65.771 52.74 66.258 152.457.849 205.818zm-42.847-163.192c-6.248-6.248-16.379-6.248-22.627 0-6.249 6.248-6.249 16.379 0 22.627 20.952 20.953 20.952 55.046 0 75.999-6.248 6.248-6.248 16.379 0 22.627 6.246 6.248 16.378 6.249 22.627 0 33.429-33.429 33.429-87.824 0-121.253zM496 109v278c0 26.468-21.533 48-48 48H48c-26.467 0-48-21.532-48-48V109c0-26.468 21.533-48 48-48h400c26.467 0 48 21.532 48 48zm-32 0c0-8.822-7.178-16-16-16H48c-8.822 0-16 7.178-16 16v278c0 8.822 7.178 16 16 16h400c8.822 0 16-7.178 16-16zM70 202v-36c0-22.056 17.944-40 40-40h36c22.056 0 40 17.944 40 40v36c0 22.056-17.944 40-40 40h-36c-22.056 0-40-17.944-40-40zm32 0c0 4.411 3.589 8 8 8h36c4.411 0 8-3.589 8-8v-36c0-4.411-3.589-8-8-8h-36c-4.411 0-8 3.589-8 8zm137 77H86c-8.836 0-16 7.163-16 16s7.164 16 16 16h153c8.836 0 16-7.163 16-16s-7.164-16-16-16zm-50 60H86c-8.836 0-16 7.163-16 16s7.164 16 16 16h103c8.836 0 16-7.163 16-16s-7.164-16-16-16z"/></symbol><symbol viewBox="0 0 496 496" id="credit-card2" xmlns="http://www.w3.org/2000/svg"><path d="M333.381 211H48c-26.468 0-48 21.533-48 48v189c0 26.467 21.532 48 48 48h285.381c26.468 0 48-21.533 48-48V259c0-26.467-21.532-48-48-48zm16 237c0 8.822-7.178 16-16 16H48c-8.822 0-16-7.178-16-16V259c0-8.822 7.178-16 16-16h285.381c8.822 0 16 7.178 16 16zm-77.152-15.339a15.935 15.935 0 01-10.104 3.603c-14.941 0-21.801-18.871-10.124-28.398 34.236-27.932 33.982-80.236-.444-107.857-6.893-5.529-7.998-15.6-2.469-22.493 5.529-6.892 15.6-7.999 22.492-2.468 50.294 40.349 50.633 116.846.649 157.613zm-26.839-44.284a15.95 15.95 0 01-11.313 4.687c-14.125 0-21.424-17.203-11.313-27.313 6.464-6.464 6.464-16.982 0-23.447-6.249-6.249-6.248-16.379 0-22.627 6.249-6.247 16.38-6.248 22.627 0 18.939 18.941 18.939 49.76-.001 68.7zM496 52v392c0 28.673-23.327 52-52 52-8.837 0-16-7.164-16-16s7.163-16 16-16c11.028 0 20-8.972 20-20V52c0-11.028-8.972-20-20-20H230c-11.028 0-20 8.972-20 20v100c0 8.836-7.163 16-16 16s-16-7.164-16-16V52c0-28.673 23.327-52 52-52h214c28.673 0 52 23.327 52 52zM136.083 269.667H74.667c-8.837 0-16 7.164-16 16v61.417c0 8.836 7.163 16 16 16h61.416c8.837 0 16-7.164 16-16v-61.417c0-8.837-7.163-16-16-16zm-16 61.416H90.667v-29.417h29.416zM265 88c-8.837 0-16-7.164-16-16s7.163-16 16-16h144c8.837 0 16 7.164 16 16s-7.163 16-16 16zm161 189c-8.837 0-16-7.164-16-16V152c0-4.411-3.589-8-8-8H272c-4.411 0-8 3.589-8 8v24.5c0 8.836-7.163 16-16 16s-16-7.164-16-16V152c0-22.056 17.944-40 40-40h130c22.056 0 40 17.944 40 40v109c0 8.836-7.163 16-16 16z"/></symbol><symbol viewBox="0 0 512 512" id="customer-support" xmlns="http://www.w3.org/2000/svg"><path d="M500.494 304.716l-50.393-29.08c.655-6.524.985-13.091.985-19.636s-.33-13.111-.985-19.636l50.393-29.08c9.563-5.518 12.849-17.76 7.322-27.327l-60.03-103.923c-5.522-9.562-17.75-12.837-27.314-7.319L370.071 97.8a193.95 193.95 0 00-34.042-19.686V20c0-11.045-8.954-20-20-20H195.97c-11.046 0-20 8.955-20 20v58.115a193.987 193.987 0 00-34.042 19.686l-50.4-29.085c-9.564-5.519-21.791-2.243-27.314 7.319L4.183 179.958c-5.523 9.56-2.247 21.805 7.322 27.327l50.393 29.08c-.655 6.524-.985 13.091-.985 19.636s.33 13.111.985 19.636l-50.393 29.08c-9.563 5.518-12.849 17.761-7.322 27.327l57.51 99.56C54.672 450.418 50.825 470.767 50.825 492c0 11.046 8.954 20 20 20h370.351c11.046 0 20-8.954 20-20 0-21.233-3.848-41.582-10.869-60.397l57.51-99.56c5.523-9.56 2.246-21.806-7.323-27.327zM92.322 472c9.675-64.023 65.071-113.25 131.751-113.25h63.853c66.68 0 122.076 49.227 131.751 113.25zM193.25 256c0-34.601 28.149-62.75 62.75-62.75s62.75 28.149 62.75 62.75-28.15 62.75-62.75 62.75-62.75-28.149-62.75-62.75zm234.775 134.207c-23.092-31.694-56.656-55.286-95.567-65.644 16.337-18.2 26.291-42.239 26.291-68.563 0-56.657-46.093-102.75-102.749-102.75S153.251 199.343 153.251 256c0 26.323 9.954 50.363 26.291 68.563-38.91 10.358-72.475 33.95-95.567 65.644l-35.147-60.846 44.695-25.792a20.002 20.002 0 009.707-20.757c-1.537-8.816-2.316-17.837-2.316-26.812s.779-17.995 2.316-26.812a20.001 20.001 0 00-9.707-20.757l-44.695-25.792 40.023-69.286 44.735 25.815a19.999 19.999 0 0022.842-1.994c13.885-11.635 29.494-20.661 46.397-26.827a20 20 0 0013.145-18.789V40h80.06v51.559a20 20 0 0013.145 18.789c16.903 6.166 32.512 15.192 46.397 26.827a20 20 0 0022.842 1.994l44.735-25.815 40.023 69.286-44.695 25.792a20.002 20.002 0 00-9.707 20.757c1.537 8.816 2.316 17.837 2.316 26.812s-.779 17.995-2.316 26.812a20.001 20.001 0 009.707 20.757l44.695 25.792z"/></symbol><symbol viewBox="0 0 512 512" id="email" xmlns="http://www.w3.org/2000/svg"><path d="M462 86H50c-27.354 0-50 22.214-50 50v240c0 27.57 22.43 50 50 50h412c27.57 0 50-22.43 50-50V136c0-27.419-22.319-50-50-50zm-38.752 40L256 232.302 88.752 126h334.496zM472 376c0 5.514-4.486 10-10 10H50c-5.514 0-10-4.486-10-10V142.41l205.271 130.469a20 20 0 0021.457 0L472 142.41V376z"/></symbol><symbol viewBox="0 0 512 512" id="facebook" xmlns="http://www.w3.org/2000/svg"><path d="M449.643 0H62.357C27.973 0 0 27.973 0 62.357v387.285C0 484.027 27.973 512 62.357 512H260.86c8.349 0 15.118-6.769 15.118-15.118v-183.31c0-8.349-6.769-15.118-15.118-15.118h-54.341v-43.033h54.341c8.349 0 15.118-6.769 15.118-15.118v-61.192c0-33.116 26.942-60.058 60.059-60.058h52.433v43.033h-52.433c-9.387 0-17.025 7.639-17.025 17.026v61.192c0 8.349 6.769 15.118 15.118 15.118h54.341v43.033H334.13c-8.349 0-15.118 6.769-15.118 15.118v183.31c0 8.349 6.769 15.118 15.118 15.118h115.513C484.027 512 512 484.027 512 449.643V62.357C512 27.973 484.027 0 449.643 0zm32.121 449.643c0 17.712-14.409 32.122-32.122 32.122H349.246V328.69h54.341c8.349 0 15.118-6.769 15.118-15.118v-73.268c0-8.349-6.769-15.118-15.118-15.118h-54.341v-32.864h54.341c8.349 0 15.118-6.769 15.118-15.118v-73.268c0-8.349-6.769-15.118-15.118-15.118h-67.551c-49.788 0-90.294 40.506-90.294 90.294v46.074h-54.341c-8.349 0-15.118 6.769-15.118 15.118v73.268c0 8.349 6.769 15.118 15.118 15.118h54.341v153.074H62.357c-17.712 0-32.122-14.409-32.122-32.122V62.357c0-17.712 14.409-32.122 32.122-32.122h387.285c17.712 0 32.122 14.409 32.122 32.122v387.286z"/></symbol><symbol viewBox="0 -39 512 512" id="factory" xmlns="http://www.w3.org/2000/svg"><path d="M510.973 249.676l-78.664-236A20.002 20.002 0 00413.332 0h-78.668c-11.043 0-20 8.953-20 20v124.973L186.277 80.777c-13.273-6.632-28.945 3.028-28.945 17.891v46.305L28.945 80.777C15.672 74.145 0 83.805 0 98.668v314.664c0 11.047 8.953 20 20 20h472c11.047 0 20-8.953 20-20V256c0-2.148-.348-4.285-1.027-6.324zM472 393.336H40V131.027l128.39 64.196c13.27 6.632 28.942-3.024 28.942-17.891v-46.305l128.39 64.196c13.27 6.632 28.942-3.028 28.942-17.891V40h44.254L472 259.246zM144.559 256c0 11.047-8.954 20-20 20H85.227c-11.047 0-20-8.953-20-20s8.953-20 20-20h39.332c11.046 0 20 8.953 20 20zm151.109 0c0 11.047-8.953 20-20 20h-39.332c-11.047 0-20-8.953-20-20s8.953-20 20-20h39.332c11.043 0 20 8.953 20 20zm0 0"/></symbol><symbol viewBox="0 0 512.014 512.014" id="handshake" xmlns="http://www.w3.org/2000/svg"><path d="M69.503 310.856l-53.333-32c-5.056-3.072-11.605-1.387-14.635 3.669-3.029 5.056-1.408 11.605 3.648 14.635l53.333 32a10.549 10.549 0 005.483 1.515c3.605 0 7.147-1.856 9.152-5.184 3.029-5.057 1.408-11.606-3.648-14.635zM244.522 96.498c-41.045-12.523-89.408-14.464-143.659-5.867-15.317 2.496-30.976-1.813-42.773-11.648L17.492 45.149c-4.544-3.797-11.243-3.136-15.019 1.365-3.776 4.523-3.157 11.243 1.365 15.019l40.597 33.835c16.533 13.76 38.293 19.712 59.776 16.341 51.029-8.149 96.149-6.379 134.08 5.227 1.045.299 2.091.448 3.115.448 4.587 0 8.811-2.965 10.197-7.573 1.729-5.633-1.449-11.585-7.081-13.313zm211.093 217.408L295.039 173.32c-4.459-3.883-11.2-3.456-15.061 1.003a10.626 10.626 0 00.981 15.04l160.64 140.629c4.075 3.52 6.4 8.64 6.4 14.123 0 10.219-8.32 18.56-18.56 18.56h-2.859c-4.331 0-8.555-1.515-11.861-4.267l-1.728-1.429c-.192-.149-.384-.32-.597-.491l-117.547-97.963c-4.544-3.797-11.243-3.157-15.04 1.344-3.776 4.523-3.157 11.243 1.365 15.019l117.952 98.304c3.968 3.477 6.208 8.469 6.208 13.803 0 10.112-8.235 18.347-18.347 18.347h-3.157c-4.267 0-8.448-1.493-11.712-4.224l-22.421-18.688a43.591 43.591 0 00-.427-.363L252.18 301.17c-4.565-3.797-11.264-3.136-15.04 1.344-3.776 4.523-3.157 11.243 1.365 15.019l97.365 81.152c3.477 3.008 5.461 7.381 5.461 12.011 0 8.811-7.168 15.979-15.979 15.979-7.915 0-15.68-2.731-21.632-7.488l-51.477-43.797c-4.459-3.797-11.221-3.264-15.04 1.216-3.819 4.501-3.264 11.221 1.216 15.04l51.733 44.011c9.941 7.957 22.464 12.352 35.2 12.352 17.429 0 32.107-12.011 36.181-28.181a39.769 39.769 0 0022.293 6.848h3.157c21.888 0 39.68-17.813 39.68-39.744 0-.981-.021-1.963-.107-2.923h2.88c21.995 0 39.893-17.899 39.893-39.979.003-11.585-5.01-22.572-13.714-30.124z"/><path d="M294.036 411.037c-4.16-4.16-10.923-4.16-15.083 0s-4.16 10.923 0 15.083c2.773 2.773.704 13.333-4.757 18.795-4.032 4.032-10.773 4.288-15.339-.256l-27.584-25.749c-4.331-4.032-11.051-3.819-15.083.512-4.011 4.288-3.797 11.051.512 15.061l27.328 25.493c6.059 6.037 14.101 9.365 22.635 9.365s16.576-3.328 22.613-9.344c12.673-12.693 17.409-36.309 4.758-48.96zm216.427-128.512c-3.029-5.035-9.579-6.763-14.635-3.669l-53.333 32c-5.035 3.029-6.677 9.6-3.648 14.635a10.67 10.67 0 009.152 5.184c1.877 0 3.776-.469 5.483-1.515l53.333-32c5.035-3.03 6.677-9.6 3.648-14.635zm-1.024-236.117c-3.84-4.459-10.56-4.971-15.04-1.173l-72.32 61.973c-36.352 4.864-62.528-3.797-85.717-11.435-16.277-5.376-31.659-10.432-48.363-10.432-28.8 0-49.771 13.781-68.288 25.984-4.032 2.645-7.979 5.227-11.861 7.552-.747.427-1.429.981-2.048 1.6l-56.512 56.491a46.23 46.23 0 00-8.661 53.461c7.893 15.765 23.765 25.579 41.408 25.579h8.533c10.603 0 20.971-3.669 29.163-10.325 4.139-3.349 8.875-7.317 13.952-11.563 18.112-15.168 45.504-38.059 58.069-42.795 5.504-2.069 8.299-8.213 6.229-13.739-2.069-5.504-8.235-8.363-13.739-6.229-14.805 5.547-36.907 23.509-64.256 46.379-5.013 4.181-9.685 8.085-13.717 11.371-4.48 3.648-9.92 5.568-15.723 5.568h-8.533c-9.515 0-18.069-5.291-22.315-13.781-4.8-9.643-2.923-21.248 4.672-28.843l55.595-55.573c3.755-2.304 7.552-4.8 11.456-7.36 16.789-11.029 34.155-22.443 56.576-22.443 13.291 0 26.453 4.331 41.707 9.344 24.811 8.213 55.701 18.453 98.581 11.861a10.453 10.453 0 005.333-2.432l74.667-64c4.48-3.84 4.992-10.582 1.152-15.04zM96.49 288.008c-10.581 0-20.373 5.248-26.219 14.037l-11.648 17.451a31.392 31.392 0 00-5.291 17.472v4.843c0 17.387 14.144 31.531 31.509 31.531 10.581 0 20.373-5.248 26.219-14.037l11.648-17.451a31.392 31.392 0 005.291-17.472v-4.843c0-17.387-14.144-31.531-31.509-31.531zm10.176 36.352c0 2.027-.597 3.989-1.728 5.675L93.29 347.506a10.093 10.093 0 01-8.448 4.523c-5.611 0-10.176-4.565-10.176-10.197v-4.843c0-2.027.597-3.989 1.707-5.653l11.669-17.472a10.093 10.093 0 018.448-4.523c5.611 0 10.176 4.565 10.176 10.176v4.843z"/><path d="M138.431 309.32c-9.877 0-19.307 4.715-25.216 12.608l-21.589 28.757c-4.053 5.419-6.293 12.16-6.293 18.944v4.181c0 17.387 14.144 31.531 32.235 31.531 9.877 0 19.307-4.715 25.216-12.587l21.589-28.757c4.053-5.419 6.293-12.16 6.293-18.944v-4.181c0-17.387-14.144-31.531-32.235-31.552zm10.901 35.733c0 2.197-.725 4.373-2.027 6.123l-21.589 28.779c-1.92 2.539-4.949 4.053-8.875 4.053-5.611 0-10.176-4.565-10.176-10.197v-4.181c0-2.197.725-4.373 2.027-6.123l21.589-28.779c1.92-2.539 4.949-4.053 8.875-4.053 5.611 0 10.176 4.565 10.176 10.197v4.181z"/><path d="M181.098 330.653c-9.877 0-19.307 4.715-25.216 12.608l-21.589 28.757c-4.053 5.419-6.293 12.16-6.293 18.944v4.181c0 17.387 14.144 31.531 32.235 31.531 9.877 0 19.307-4.715 25.216-12.587l21.589-28.757c4.053-5.419 6.293-12.16 6.293-18.944v-4.181c-.001-17.387-14.145-31.531-32.235-31.552zm10.901 35.733c0 2.197-.725 4.373-2.027 6.123l-21.589 28.779c-1.92 2.539-4.949 4.053-8.875 4.053-5.611 0-10.176-4.565-10.176-10.197v-4.181c0-2.197.725-4.373 2.027-6.123l21.589-28.779c1.92-2.539 4.949-4.053 8.875-4.053 5.611 0 10.176 4.565 10.176 10.197v4.181z"/><path d="M223.764 351.986c-9.877 0-19.307 4.715-25.216 12.608l-21.589 28.757c-4.053 5.419-6.293 12.16-6.293 18.944v4.181c0 17.387 14.144 31.531 32.235 31.531 9.877 0 19.307-4.715 25.216-12.608l21.589-28.757c4.053-5.419 6.293-12.16 6.293-18.944v-4.181c0-17.387-14.123-31.531-32.235-31.531zm10.902 35.734c0 2.197-.725 4.373-2.027 6.123l-21.589 28.779c-1.92 2.539-4.949 4.053-8.875 4.053-5.611 0-10.176-4.565-10.176-10.197v-4.181c0-2.197.725-4.373 2.027-6.123l21.589-28.779c1.92-2.539 4.949-4.053 8.875-4.053 5.611 0 10.176 4.565 10.176 10.197v4.181z"/></symbol><symbol viewBox="0 0 512 512" id="heart" xmlns="http://www.w3.org/2000/svg"><path d="M374 39.221c-42.59 0-79.926 18.991-107.971 54.921A181.741 181.741 0 00256 108.371a181.553 181.553 0 00-10.029-14.229C217.926 58.212 180.59 39.221 138 39.221c-80.456 0-138 67.367-138 148.204 0 92.433 75.757 179.547 245.637 282.46 3.185 1.929 6.774 2.894 10.363 2.894s7.178-.964 10.363-2.893C436.243 366.973 512 279.859 512 187.426c0-80.795-57.497-148.205-138-148.205zm45.157 263.299C383.79 341.982 330.345 383.534 256 429.343c-74.345-45.809-127.79-87.361-163.157-126.822C57.285 262.845 40 225.197 40 187.426c0-58.204 39.334-108.205 98-108.205 29.876 0 55.35 12.99 75.715 38.61 16.284 20.489 23.145 41.646 23.193 41.797a20 20 0 0038.186 0c.063-.202 6.718-20.699 22.467-40.875C318.036 92.521 343.754 79.22 374 79.22c58.728 0 98 50.049 98 108.205 0 37.771-17.285 75.419-52.843 115.095z"/></symbol><symbol viewBox="0 0 512 512" id="heart-alt" xmlns="http://www.w3.org/2000/svg"><path d="M374 39.2c-42.6 0-79.9 19-108 54.9-3.7 4.8-7.1 9.6-10 14.2-3-4.6-6.3-9.4-10-14.2-28-35.9-65.4-54.9-108-54.9-80.5 0-138 67.4-138 148.2C0 279.9 75.8 367 245.6 469.9c3.2 1.9 6.8 2.9 10.4 2.9 3.6 0 7.2-1 10.4-2.9C436.2 367 512 279.9 512 187.4c0-80.8-57.5-148.2-138-148.2z"/><path d="M419.2 302.5c-35.4 39.5-88.8 81-163.2 126.8-74.3-45.8-127.8-87.3-163.2-126.8C57.3 262.8 40 225.2 40 187.4c0-58.2 39.3-108.2 98-108.2 29.9 0 55.4 13 75.7 38.6 16.3 20.5 23.1 41.6 23.2 41.8 2.6 8.4 10.3 14 19.1 14s16.5-5.7 19.1-14c.1-.2 6.7-20.7 22.5-40.9C318 92.5 343.8 79.2 374 79.2c58.7 0 98 50 98 108.2 0 37.8-17.3 75.4-52.8 115.1z"/></symbol><symbol viewBox="0 0 512 512" id="instagram" xmlns="http://www.w3.org/2000/svg"><path d="M371.643 0H140.357C62.964 0 0 62.964 0 140.358v231.285C0 449.037 62.964 512 140.357 512h231.286C449.037 512 512 449.037 512 371.643V140.358C512 62.964 449.037 0 371.643 0zm110.121 371.643c0 60.721-49.399 110.121-110.121 110.121H140.357c-60.721 0-110.121-49.399-110.121-110.121V140.358c0-60.722 49.4-110.122 110.121-110.122h231.286c60.722 0 110.121 49.4 110.121 110.122v231.285z"/><path d="M256 115.57c-77.434 0-140.431 62.997-140.431 140.431S178.565 396.432 256 396.432c77.434 0 140.432-62.998 140.432-140.432S333.434 115.57 256 115.57zm0 250.627c-60.762 0-110.196-49.435-110.196-110.197S195.238 145.804 256 145.804c60.763 0 110.197 49.435 110.197 110.197S316.763 366.197 256 366.197zM404.831 64.503c-23.526 0-42.666 19.141-42.666 42.667 0 23.526 19.14 42.666 42.666 42.666 23.526 0 42.666-19.141 42.666-42.667s-19.14-42.666-42.666-42.666zm0 55.096c-6.853 0-12.43-5.576-12.43-12.43s5.577-12.43 12.43-12.43c6.854 0 12.43 5.577 12.43 12.43s-5.576 12.43-12.43 12.43z"/></symbol><symbol viewBox="0 0 451.111 451.111" id="left-arrow" xmlns="http://www.w3.org/2000/svg"><path d="M451.111 193.333H128.889L241.667 80.556l-48.333-48.333L0 225.556l193.333 193.333 48.333-48.333-112.777-112.778h322.222z"/></symbol><symbol viewBox="0 0 500 500" id="libra" xmlns="http://www.w3.org/2000/svg"><path class="aost0" d="M246.3 460.9c-11 0-20-9-20-20v-394c0-11 9-20 20-20s20 9 20 20v394c0 11-8.9 20-20 20zm-150 0c-11 0-20-9-20-20v-194c0-11 9-20 20-20s20 9 20 20v194c0 11-8.9 20-20 20zm300 0c-11 0-20-9-20-20v-294c0-11 9-20 20-20s20 9 20 20v294c0 11-8.9 20-20 20z"/></symbol><symbol viewBox="0 0 512 512" id="linkedin" xmlns="http://www.w3.org/2000/svg"><path d="M104.875 167.394H15.198C6.805 167.394 0 174.199 0 182.592V486.91c0 8.393 6.805 15.198 15.198 15.198h89.678c8.393 0 15.198-6.805 15.198-15.198V182.592c-.001-8.393-6.805-15.198-15.199-15.198zM89.678 471.712H30.396V197.79h59.282v273.922zM474.77 216.34c-26.278-32.02-63.182-48.945-106.721-48.945-23.574 0-44.423 4.958-62.316 14.78-.222-8.2-6.938-14.78-15.192-14.78h-89.678c-8.393 0-15.198 6.805-15.198 15.198V486.91c0 8.393 6.805 15.198 15.198 15.198h89.678c8.393 0 15.198-6.805 15.198-15.198V330.562c0-23.762 19.332-43.094 43.093-43.094 23.762 0 43.095 19.332 43.095 43.094V486.91c0 8.393 6.805 15.198 15.198 15.198h89.678c8.393 0 15.198-6.805 15.198-15.198V330.562c-.001-44.404-13.223-84.97-37.231-114.222zm6.834 255.372h-59.282v-141.15c0-40.523-32.968-73.49-73.491-73.49-40.522 0-73.489 32.967-73.489 73.49v141.15H216.06V197.789h59.282v14.852a15.198 15.198 0 0026.054 10.636c16.569-16.912 38.994-25.488 66.652-25.488 78.443 0 113.555 66.684 113.555 132.772v141.151zM60.037 9.892C26.933 9.892 0 36.824 0 69.928s26.933 60.036 60.037 60.036 60.037-26.932 60.037-60.036c-.001-33.104-26.933-60.036-60.037-60.036zm0 89.677c-16.344 0-29.641-13.296-29.641-29.641s13.297-29.641 29.641-29.641c16.344 0 29.641 13.297 29.641 29.641 0 16.344-13.298 29.641-29.641 29.641z"/></symbol><symbol viewBox="0 0 511.998 511.998" id="loupe" xmlns="http://www.w3.org/2000/svg"><path d="M506.142 399.19l-78.667-78.666c-7.811-7.811-20.474-7.811-28.284 0L374 345.716l-24.344-24.344C377.36 287.432 394 244.125 394 197 394 88.374 305.626 0 197 0S0 88.374 0 197s88.374 197 197 197c47.125 0 90.432-16.64 124.372-44.343L345.715 374l-25.191 25.19c-7.806 7.807-7.81 20.475 0 28.285l78.667 78.667c7.807 7.806 20.475 7.808 28.284 0l78.667-78.667c7.805-7.805 7.81-20.475 0-28.285zM40 197c0-86.57 70.43-157 157-157s157 70.43 157 157-70.43 157-157 157S40 283.57 40 197zm373.333 266.716l-50.383-50.383 50.383-50.382 50.382 50.382z"/></symbol><symbol viewBox="-39 0 511 511.999" id="medal" xmlns="http://www.w3.org/2000/svg"><path d="M217.207 276.008c54.406 0 98.672-44.262 98.672-98.668s-44.266-98.672-98.672-98.672-98.672 44.266-98.672 98.672c.004 54.406 44.266 98.668 98.672 98.668zm0-157.336c32.352 0 58.668 26.316 58.668 58.668 0 32.351-26.316 58.668-58.668 58.668-32.352 0-58.668-26.317-58.668-58.668 0-32.352 26.316-58.668 58.668-58.668zm215.719 319.394l-57.797-180.09C435.055 141.099 350.055 0 217.207 0 84.293 0-.602 141.172 59.285 257.977L1.488 438.067c-5.14 16.027 10.68 30.87 26.344 24.734l61.652-24.164 31.164 62.324c7.356 14.707 28.415 14.726 35.778 0l60.781-121.559 60.781 121.559c7.352 14.707 28.414 14.726 35.778 0l31.16-62.324 61.656 24.164c15.672 6.14 31.484-8.715 26.344-24.735zM217.207 40c75.727 0 137.336 61.61 137.336 137.34 0 75.726-61.61 137.336-137.336 137.336-75.73 0-137.34-61.61-137.34-137.336 0-75.73 61.61-137.34 137.34-137.34zm-78.668 407.293l-21.445-42.89c-4.63-9.255-15.555-13.454-25.188-9.676l-39.46 15.46 35.73-111.328c25.625 27.196 59.719 46.32 98.027 53.102zm203.969-52.566c-9.633-3.778-20.559.421-25.188 9.675l-21.445 42.891-47.664-95.332c38.309-6.781 72.402-25.906 98.027-53.098l35.73 111.328zm0 0"/></symbol><symbol viewBox="0 -21 384 384" id="menu" xmlns="http://www.w3.org/2000/svg"><path d="M362.668 0H21.332C9.578 0 0 9.578 0 21.332V64c0 11.754 9.578 21.332 21.332 21.332h341.336C374.422 85.332 384 75.754 384 64V21.332C384 9.578 374.422 0 362.668 0zm0 128H21.332C9.578 128 0 137.578 0 149.332V192c0 11.754 9.578 21.332 21.332 21.332h341.336c11.754 0 21.332-9.578 21.332-21.332v-42.668c0-11.754-9.578-21.332-21.332-21.332zm0 128H21.332C9.578 256 0 265.578 0 277.332V320c0 11.754 9.578 21.332 21.332 21.332h341.336c11.754 0 21.332-9.578 21.332-21.332v-42.668c0-11.754-9.578-21.332-21.332-21.332zm0 0"/></symbol><symbol viewBox="0 0 24 24" id="minus" xmlns="http://www.w3.org/2000/svg"><path d="M19 13H5v-2h14v2z"/></symbol><symbol viewBox="0 0 512.5 512.5" id="odnoklassniki" xmlns="http://www.w3.org/2000/svg"><path class="aust0" d="M256.3 277.3c-76.6 0-138.7-62.1-138.7-138.7S179.7 0 256.3 0 395 62.1 395 138.7c-.2 76.5-62.2 138.5-138.7 138.6zm0-256C191.5 21.3 139 73.8 139 138.6S191.4 256 256.3 256s117.3-52.5 117.3-117.3C373.5 73.9 321 21.4 256.3 21.3z"/><path class="aust0" d="M256.3 213.3c-41.2 0-74.7-33.4-74.7-74.7S215 64 256.3 64 331 97.4 331 138.7s-33.5 74.6-74.7 74.6zm0-128c-29.5 0-53.3 23.9-53.3 53.3s23.9 53.3 53.3 53.3 53.3-23.9 53.3-53.3-23.9-53.3-53.3-53.3zm96 426.7c-11.3 0-22.2-4.5-30.2-12.5l-65.8-68.1-65.7 68c-16.8 16.3-43.5 16.3-60.5.1-16.7-16.7-16.7-43.7 0-60.3l64.4-63.1c-4-1-7.9-2.1-11.6-3.2-22.1-7-43.2-17-62.5-29.9-15.1-9.9-24.1-26.8-24.2-44.8-.2-15 8.2-28.7 21.7-35.3 13.8-6.9 30.4-5.4 42.7 4 57 41.6 134.3 41.6 191.3 0 12.3-9.3 28.8-10.9 42.7-4 13.5 6.6 22 20.3 21.8 35.3 0 18-9.1 34.9-24.1 44.8-19.3 12.9-40.3 22.9-62.5 29.9-3.8 1.2-7.7 2.3-11.7 3.3l64.4 63c16.7 16.6 16.7 43.7.1 60.3-8.2 8-19 12.5-30.3 12.5zm-96-106.7c2.9 0 5.7 1.2 7.7 3.2l73.4 76c8.5 7.9 21.6 7.8 30-.1 8.3-8.3 8.3-21.8 0-30.2l-78.6-76.8c-4.2-4.1-4.3-10.9-.2-15.1 1.6-1.6 3.6-2.7 5.8-3.1 9.8-1.6 19.4-3.9 28.9-6.8 20.2-6.3 39.4-15.5 57-27.2 9.1-6 14.6-16.2 14.6-27.1.2-6.9-3.7-13.2-9.9-16.2-6.6-3.3-14.6-2.6-20.4 2-64.3 48-152.5 48-216.8 0-5.8-4.6-13.8-5.3-20.4-2-6.2 3-10 9.4-9.9 16.2 0 10.9 5.5 21.1 14.6 27.1 17.6 11.7 36.8 20.8 57 27.1 9.5 2.9 19.1 5.1 28.8 6.7 5.8 1 9.7 6.5 8.7 12.3-.4 2.2-1.5 4.3-3.1 5.8l-78.7 77c-8.3 8.3-8.3 21.8 0 30.1 8.4 8.1 21.7 8.1 30.2 0l73.2-75.8c2.3-1.9 5.1-3.1 8.1-3.1z"/></symbol><symbol viewBox="0 0 512 512" id="open-menu" xmlns="http://www.w3.org/2000/svg"><path d="M492 236H20c-11.046 0-20 8.954-20 20s8.954 20 20 20h472c11.046 0 20-8.954 20-20s-8.954-20-20-20zm0-160H20C8.954 76 0 84.954 0 96s8.954 20 20 20h472c11.046 0 20-8.954 20-20s-8.954-20-20-20zm0 320H20c-11.046 0-20 8.954-20 20s8.954 20 20 20h472c11.046 0 20-8.954 20-20s-8.954-20-20-20z"/></symbol><symbol viewBox="0 0 512 512" id="pantone" xmlns="http://www.w3.org/2000/svg"><path d="M492 285.941H385.906l113.555-113.554c7.805-7.805 7.809-20.473 0-28.282L367.895 12.54c-7.81-7.809-20.473-7.809-28.282 0L226.06 126.094V20c0-11.047-8.954-20-20-20H20C8.953 0 0 8.953 0 20v472c0 11.047 8.953 20 20 20h472c11.047 0 20-8.953 20-20V305.941c0-11.046-8.953-20-20-20zM353.754 54.97L457.03 158.246 329.336 285.941H122.78zM40 40h146.059v126.094L66.21 285.94H40zm432 432H40V325.941h432zM70 398.973c0-13.809 11.191-25 25-25s25 11.191 25 25c0 13.804-11.191 25-25 25s-25-11.196-25-25zm0 0"/></symbol><symbol viewBox="0 0 512.084 512.084" id="paper-clip" xmlns="http://www.w3.org/2000/svg"><path d="M478.324 229.113L270.158 437.33c-51.305 51.319-112.676 44.617-115.854 45.205-41.213 0-79.959-16.049-109.102-45.19C16.06 408.202.012 369.456.012 328.243c.479-2.522-5.593-65.116 45.423-115.914L163.567 94.696c7.827-7.793 20.489-7.769 28.284.06 7.794 7.827 7.768 20.49-.06 28.284L73.66 240.673c-38.542 38.378-33.192 85.108-33.647 87.57 0 30.528 11.889 59.23 33.476 80.816 21.586 21.587 50.287 33.476 80.816 33.476 2.875-.518 48.936 5.155 87.566-33.486l208.165-208.217c29.307-29.315 29.348-76.62.353-106.012l-2.851-2.889c-29.933-30.343-78.056-29.25-106.941-.362l-213.511 213.51c-11.502 11.502-10.922 29.802.036 40.723l9.727 9.694c11.368 11.329 29.553 11.019 40.604-.078l142.5-143.106c7.794-7.828 20.457-7.854 28.284-.06s7.854 20.457.06 28.284l-142.5 143.106c-26.46 26.573-69.984 27.291-97.184.186l-9.728-9.694c-26.42-26.331-27.41-70.011-.083-97.34l213.51-213.51c45.348-45.346 118.934-44.826 163.702.556l2.851 2.889c44.414 45.021 44.351 117.478-.541 162.384z"/></symbol><symbol viewBox="0 0 512 512" id="paper-plane" xmlns="http://www.w3.org/2000/svg"><path d="M501.762 238.487L149.737 42.055c-13.311-7.43-29.732 2.236-29.732 17.512v80.214L6.687 241.039c-8.911 7.962-8.92 21.95 0 29.921l113.319 101.258v80.214c0 15.262 16.407 24.948 29.732 17.512l352.025-196.433c13.576-7.563 13.723-27.378-.001-35.024zm-381.757 80.021L50.052 256l69.953-62.508zm40.003 99.821V276.043h254.989zm0-182.373V93.67l254.989 142.286z"/></symbol><symbol viewBox="0 0 512 512" id="phone-call" xmlns="http://www.w3.org/2000/svg"><path d="M437.02 74.979C388.669 26.629 324.381 0 256.002 0c-11.046 0-20 8.954-20 20s8.954 20 20 20c57.696 0 111.937 22.468 152.734 63.264C449.532 144.062 472 198.303 472 255.998c0 11.046 8.954 20 20 20s20-8.954 20-20c0-68.379-26.628-132.666-74.98-181.019zM327.591 291.887c-7.81-7.811-20.473-7.811-28.284 0l-28.659 28.66c-31.419-19.858-59.338-47.776-79.195-79.195l28.66-28.659c7.809-7.81 7.806-20.479 0-28.285L106.977 71.27a20.001 20.001 0 00-28.284.001l-64.025 64.026C2.885 147.08-2.254 163.836.922 180.119c30.29 155.294 175.665 300.669 330.959 330.959 16.228 3.167 33.003-1.926 44.821-13.744l64.026-64.026a20 20 0 000-28.286L327.591 291.887zm20.827 177.161c-2.358 2.36-5.678 3.394-8.88 2.771C199.995 444.602 67.386 311.938 40.18 172.462c-.624-3.201.412-6.521 2.77-8.878l.001-.002 49.884-49.885 84.851 84.851-25.456 25.455a20.001 20.001 0 00-3.413 23.726c26.291 48.16 67.292 89.16 115.451 115.451a19.999 19.999 0 0023.725-3.412l25.456-25.456 84.852 84.852-49.883 49.884z"/></symbol><symbol viewBox="0 0 24 24" id="plus" xmlns="http://www.w3.org/2000/svg"><path d="M19 13h-6v6h-2v-6H5v-2h6V5h2v6h6v2z"/></symbol><symbol viewBox="-53 0 512 512.001" id="shield" xmlns="http://www.w3.org/2000/svg"><path d="M386 86.684c-94.512 0-166.895-78.715-168.113-80.055-7.914-8.82-21.79-8.856-29.762-.008-.723.797-73.285 80.063-168.125 80.063-11.047 0-20 8.953-20 20 0 175.78 35.453 327.863 194.418 403.382a20.012 20.012 0 0017.164 0C370.906 434.375 406 281.77 406 106.684c0-11.047-8.953-20-20-20zm-183 383.02C72.727 403.05 42.117 273.245 40.121 125.741 116.777 118.582 176.47 72.391 203 48.094c26.531 24.297 86.227 70.488 162.879 77.648C363.883 273.277 333.258 403.06 203 469.703zM182.46 275.48l81.4-81.398c7.808-7.809 20.472-7.812 28.28 0 7.813 7.813 7.813 20.473.005 28.285l-95.54 95.54c-7.808 7.808-20.476 7.804-28.285 0l-54.46-54.462c-7.813-7.812-7.813-20.476 0-28.285 7.808-7.812 20.472-7.812 28.285 0zm0 0"/></symbol><symbol viewBox="0 -58 511.999 511" id="shopping-basket" xmlns="http://www.w3.org/2000/svg"><path d="M491.992 90.496h-55.996v-30c0-33.082-26.918-59.996-60-59.996H316c-11.047 0-20 8.953-20 20 0 11.043 8.953 20 20 20h59.996c11.027 0 20 8.969 20 19.996v30H116.004v-30c0-11.027 8.973-19.996 20-19.996H196c11.047 0 20-8.957 20-20 0-11.047-8.953-20-20-20h-59.996c-33.082 0-60 26.914-60 59.996v30H20.008c-12.844 0-22.371 11.961-19.492 24.48L61.672 380.97a19.998 19.998 0 0019.488 15.52h349.676c9.32 0 17.402-6.438 19.492-15.52l61.152-265.992c2.88-12.52-6.64-24.48-19.488-24.48zm-77.078 265.992H97.086L45.125 130.496h421.75zM226 193.492v100c0 11.043-8.953 20-20 20-11.043 0-20-8.957-20-20v-100c0-11.043 8.957-19.996 20-19.996 11.047 0 20 8.953 20 19.996zm99.996 0v100c0 11.043-8.953 20-19.996 20-11.047 0-20-8.957-20-20v-100c0-11.043 8.953-19.996 20-19.996 11.043 0 19.996 8.953 19.996 19.996zm0 0"/></symbol><symbol viewBox="0 -47 512 511" id="shopping-cart" xmlns="http://www.w3.org/2000/svg"><path d="M491.988 100.457h-38.84L358.031 6.285c-7.793-7.715-20.344-7.715-28.14 0l-29.989 29.692-29.988-29.692c-7.793-7.715-20.348-7.715-28.14 0l-95.118 94.172H122.54l-7.445-23.906A20.004 20.004 0 0095.996 62.5H20c-11.047 0-20 8.953-20 20s8.953 20 20 20h61.277c3.453 11.082 69.414 222.86 71.621 229.95a20.008 20.008 0 0019.098 14.05h255.816a20.003 20.003 0 0019.094-14.05l64.176-206.044c4.016-12.894-5.648-25.949-19.094-25.949zM343.961 48.645l52.336 51.812H291.629zm-88.117 0l15.633 15.472-36.704 36.34h-31.261zM413.094 306.5h-226.38l-51.718-166.043h329.816zm-4.188 85c0 13.809-11.195 25-25 25-13.808 0-25-11.191-25-25s11.192-25 25-25c13.805 0 25 11.191 25 25zm-168 0c0 13.809-11.195 25-25 25-13.808 0-25-11.191-25-25s11.192-25 25-25c13.805 0 25 11.191 25 25zm0 0"/></symbol><symbol viewBox="0 0 512 512" id="tag" xmlns="http://www.w3.org/2000/svg"><path d="M492.001 0h-236a20 20 0 00-14.143 5.858l-236 236c-7.811 7.811-7.811 20.474 0 28.284l236 236c7.81 7.81 20.474 7.811 28.285 0l236-236A20.001 20.001 0 00512 256V20c.001-11.046-8.953-20-19.999-20zm-236 463.716L48.286 256l37.715-37.715 207.716 207.716-37.716 37.715zm216-216l-150 150L114.286 190l150-150h207.715v207.716z"/><path d="M376.001 76c-33.084 0-60 26.916-60 60s26.917 60 60 60c33.084 0 60-26.916 60-60s-26.916-60-60-60zm0 80c-11.028 0-20-8.972-20-20s8.972-20 20-20 20 8.972 20 20-8.972 20-20 20z"/></symbol><symbol viewBox="0 0 511.999 511.999" id="twitter" xmlns="http://www.w3.org/2000/svg"><path d="M509.738 109.538a15.263 15.263 0 00-14.332-7.215l-25.53 2.224 24.403-49.193a15.268 15.268 0 00-20.393-20.498l-64.587 31.631c-39.903-21.066-89.756-14.813-124.06 16.436-28.63 26.08-43.679 66.187-40.873 106.183-74.829-7.5-138.169-50.331-175.623-119.537a15.269 15.269 0 00-25.7-1.817c-23.23 31.382-24.86 74.41-6.649 109.809-5.02-1.268-10.362-2.984-16.286-4.963A15.266 15.266 0 00.205 189.564c7.206 43.688 32.682 77.264 72.926 97.138a128.229 128.229 0 01-16.024 4.44 15.267 15.267 0 00-8.034 25.378c28.981 30.978 70.845 46.225 100.581 53.539-33.81 26.477-70.307 30.908-123.341 29.087-6.139-.186-11.795 3.272-14.376 8.837a15.27 15.27 0 002.544 16.681c22.108 24.369 102.654 51.847 187.326 53.907 3.349.081 6.765.125 10.253.125 59.451-.001 138.022-12.745 194.419-69.142 42.687-42.686 69.387-91.827 79.356-146.053 8.052-43.797 2.963-78.869.518-95.725-.18-1.239-.372-2.554-.528-3.704l23.881-38.49a15.267 15.267 0 00.032-16.044zm-53.606 62.622c4.531 31.224 18.316 126.24-71.245 215.801-52.06 52.059-127.888 61.407-182.338 60.084-46.461-1.13-88.019-10.016-118.139-20.15 12.229-1.5 23.127-3.814 33.414-7.011 28.359-8.815 52.317-24.676 75.395-49.915a15.268 15.268 0 00-9.327-25.447c-14.559-1.866-58.305-9.23-92.753-32.992 9.927-4.06 19.501-9.141 28.643-15.205a15.27 15.27 0 00-4.569-27.494c-28.195-7.392-62.223-23.932-77.914-60.855 10.02 1.756 20.915 2.181 32.535-.424a15.268 15.268 0 007.645-25.504c-19.524-20.222-26.825-49.364-20.561-74.301 20.514 29.981 46.503 55.213 76.279 73.868 38.091 23.865 82.549 37.054 128.57 38.137a15.32 15.32 0 0012.157-5.573 15.27 15.27 0 003.107-13.007c-7.918-35.595 3.375-73.541 28.771-96.674 26.34-23.995 65.269-27.635 94.666-8.846a15.27 15.27 0 0014.938.846l31.541-15.448-16.509 33.281a15.265 15.265 0 001.065 15.388 15.252 15.252 0 0013.938 6.607l22.242-1.937-10.246 16.515c-3.439 5.543-2.726 10.461-1.305 20.256z"/></symbol><symbol viewBox="0 0 512 512" id="user" xmlns="http://www.w3.org/2000/svg"><path d="M437.019 310.826c-28.355-28.355-62.197-49.227-99.125-61.652 34.055-25.17 56.183-65.596 56.183-111.097C394.078 61.941 332.137 0 256 0S117.922 61.941 117.922 138.077c0 45.502 22.128 85.928 56.183 111.097-36.928 12.424-70.768 33.296-99.125 61.652C26.629 359.178 0 423.466 0 491.846 0 502.977 9.023 512 20.154 512h471.691c11.131 0 20.154-9.023 20.154-20.154.001-68.38-26.628-132.668-74.98-181.02zM158.232 138.077c0-53.91 43.858-97.768 97.769-97.768 53.911 0 97.769 43.858 97.769 97.768 0 53.91-43.858 97.768-97.769 97.768-53.911.001-97.769-43.858-97.769-97.768zM41.243 471.691C51.437 362.172 143.863 276.154 256 276.154s204.563 86.017 214.757 195.537H41.243z"/></symbol><symbol viewBox="0 0 512.003 512.003" id="vk" xmlns="http://www.w3.org/2000/svg"><path d="M509.443 407.14l-17.623-41.416c-15.368-36.719-35.66-68.476-60.45-94.641 32.574-26.069 65.262-71.487 65.262-148.738V92.36c0-17.609-14.326-31.935-31.935-31.935h-59.97c-17.609 0-31.935 14.326-31.935 31.935v29.985c0 22.29-4.135 36.775-13.408 46.965-6.484 7.127-16.096 12.772-28.687 16.867V75.543c0-8.349-6.769-15.118-15.118-15.118h-112.29c-22.481 0-40.77 18.289-40.77 40.77 0 18.962 12.883 35.272 31.33 39.663l4.913 1.169a10.497 10.497 0 018.094 10.247v155.328c-13.441-9.207-25.993-21.41-37.021-36.088-29.661-39.48-45.996-92.456-45.996-149.171V92.36c0-17.609-14.326-31.935-31.935-31.935h-59.97C14.325 60.425 0 74.751 0 92.36v29.985c0 85.047 26.115 165.634 73.538 226.914 51.061 65.982 120.398 102.32 195.239 102.32h29.985c17.609 0 31.935-14.326 31.935-31.935v-73.561c19.377 16.685 35.109 39.308 46.891 67.473l7.703 18.413a31.856 31.856 0 0029.46 19.609h65.304a31.862 31.862 0 0026.641-14.321 31.85 31.85 0 002.747-30.117zm-27.972 13.44c-.503.762-1.166.762-1.416.762h-65.304a1.694 1.694 0 01-1.566-1.042l-7.703-18.413c-16.766-40.079-40.861-70.796-71.611-91.298a156.643 156.643 0 00-10.954-6.66 15.12 15.12 0 00-15.007.186 15.12 15.12 0 00-7.45 13.03v102.498a1.7 1.7 0 01-1.698 1.698h-29.985c-65.276 0-126.12-32.171-171.326-90.587-43.343-56.011-67.213-130.026-67.213-208.41V92.36a1.7 1.7 0 011.698-1.698h59.969a1.7 1.7 0 011.698 1.698v29.985c0 63.223 18.488 122.649 52.056 167.332 19.804 26.358 44.145 46.197 70.392 57.369a15.12 15.12 0 0021.04-13.911v-180.86c0-18.963-12.883-35.274-31.33-39.664l-4.912-1.168a10.5 10.5 0 01-8.095-10.248c0-5.808 4.725-10.534 10.534-10.534h97.171v114.795a15.118 15.118 0 0017.828 14.874c28.277-5.15 49.63-15.47 63.461-30.672 14.716-16.174 21.28-36.933 21.28-67.314V92.359a1.7 1.7 0 011.698-1.698h59.97a1.7 1.7 0 011.698 1.698v29.985c0 75.718-36.186 114.757-66.544 134.175a15.116 15.116 0 00-2.094 23.857c27.609 25.42 49.876 58.074 66.184 97.054l.036.085 17.643 41.464c.096.23.356.84-.148 1.601z"/></symbol><symbol viewBox="0 0 496 496" id="wifi-router" xmlns="http://www.w3.org/2000/svg"><path d="M448 297.469H148v-145c0-8.837-7.163-16-16-16s-16 7.163-16 16v145H48c-26.468 0-48 21.532-48 48v82c0 26.468 21.532 48 48 48h400c26.468 0 48-21.532 48-48v-82c0-26.468-21.532-48-48-48zm16 130c0 8.822-7.178 16-16 16H48c-8.822 0-16-7.178-16-16v-82c0-8.822 7.178-16 16-16h400c8.822 0 16 7.178 16 16zm-376-65c-13.233 0-24 10.767-24 24s10.767 24 24 24 24-10.767 24-24-10.767-24-24-24zm72 0c-13.233 0-24 10.767-24 24s10.767 24 24 24 24-10.767 24-24-10.767-24-24-24zm72 0c-13.233 0-24 10.767-24 24s10.767 24 24 24 24-10.767 24-24-10.767-24-24-24zm200 24c0 8.837-7.163 16-16 16h-87c-8.837 0-16-7.163-16-16s7.163-16 16-16h87c8.837 0 16 7.163 16 16zM168.215 169.49c12.372-26.328-6.799-57.021-36.215-57.021-29.438 0-48.58 30.707-36.215 57.021 3.758 7.998.32 17.528-7.677 21.286-7.996 3.758-17.527.32-21.286-7.677C44.555 135.708 79.045 80.469 132 80.469c52.966 0 87.444 55.24 65.178 102.63-3.756 7.993-13.282 11.436-21.286 7.677-7.997-3.758-11.435-13.288-7.677-21.286zM38.662 245.807c-51.467-51.467-51.467-135.209 0-186.676s135.209-51.467 186.676 0 51.467 135.209 0 186.676a15.95 15.95 0 01-11.313 4.687c-14.124 0-21.424-17.205-11.313-27.313 38.99-38.99 38.99-102.432 0-141.422-39.08-39.08-102.336-39.085-141.422 0-38.99 38.99-38.99 102.432 0 141.422 6.249 6.248 6.249 16.379 0 22.627-6.249 6.247-16.38 6.247-22.628-.001z"/></symbol><symbol viewBox="0 0 512 512" id="woman" xmlns="http://www.w3.org/2000/svg"><path d="M421.184 384.96l-81.728-20.437-4.715-18.88c56.384-9.493 85.397-26.389 86.677-27.136 3.029-1.771 4.907-4.992 5.163-8.491.235-3.499-1.323-6.933-4.075-9.131C422.123 300.587 384 269.099 384 160c0-92.011-21.525-138.667-64-138.667h-6.293C298.389 6.528 286.891 0 256 0c-40.085 0-128 40.299-128 160 0 109.099-38.123 140.587-38.4 140.8a10.703 10.703 0 00-4.267 9.067 10.66 10.66 0 005.163 8.597c1.28.768 30.016 17.749 86.741 27.221l-4.715 18.837-81.727 20.438C37.333 398.336 0 446.165 0 501.333 0 507.221 4.779 512 10.667 512h490.667c5.888 0 10.667-4.821 10.667-10.709a119.728 119.728 0 00-90.817-116.331z"/></symbol><symbol viewBox="0 0 512 512" id="youtube" xmlns="http://www.w3.org/2000/svg"><path d="M445.481 86.676H66.519C29.84 86.676 0 116.516 0 153.195v205.61c0 36.679 29.84 66.519 66.519 66.519h378.962c36.678 0 66.519-29.84 66.519-66.518V153.195c0-36.679-29.84-66.519-66.519-66.519zm36.283 272.13c0 20.007-16.276 36.283-36.283 36.283H66.519c-20.007 0-36.283-16.276-36.283-36.283V153.195c0-20.007 16.276-36.283 36.283-36.283h378.962c20.007 0 36.283 16.276 36.283 36.283v205.611z"/><path d="M353.259 242.908l-144.544-83.452a15.116 15.116 0 00-22.677 13.092v166.904a15.116 15.116 0 0015.118 15.118 15.1 15.1 0 007.559-2.026l144.544-83.452a15.118 15.118 0 000-26.184zm-136.985 70.36V198.733l99.19 57.268-99.19 57.267z"/></symbol></svg>